<svg xmlns="http://www.w3.org/2000/svg" xmlns:xlink="http://www.w3.org/1999/xlink" width="100" zoomAndPan="magnify" viewBox="0 0 75 30.000001" height="40" preserveAspectRatio="xMidYMid meet" version="1.0"><defs><g/></defs><g fill="#38b6ff" fill-opacity="1"><g transform="translate(5.007364, 20.666166)"><g><path d="M 9.125 -11.125 L 9.125 -9.21875 L 4.171875 -9.21875 L 4.171875 -2.0625 L 9.109375 -2.265625 L 9.109375 -0.359375 L 0.578125 0 L 0.578125 -11.125 Z M 9.125 -11.125 "/></g></g></g><g fill="#38b6ff" fill-opacity="1"><g transform="translate(14.534189, 20.666166)"><g><path d="M 9.03125 -7.9375 L 9.03125 -0.359375 L 0.484375 0 L 0.484375 -7.9375 Z M 4.078125 -2.0625 L 6.65625 -2.171875 L 6.65625 -6.03125 L 4.078125 -6.03125 Z M 4.078125 -2.0625 "/></g></g></g><g fill="#38b6ff" fill-opacity="1"><g transform="translate(24.029255, 20.666166)"><g><path d="M 5.890625 -7.9375 L 6.984375 -5.84375 L 4.078125 -4.3125 L 4.078125 0 L 0.484375 0 L 0.484375 -7.9375 L 4.078125 -7.9375 L 4.078125 -6.984375 Z M 5.890625 -7.9375 "/></g></g></g><g fill="#38b6ff" fill-opacity="1"><g transform="translate(31.285522, 20.666166)"><g><path d="M 0.484375 -7.9375 L 9.015625 -7.9375 L 9.015625 -6.03125 L 5.515625 -2.125 L 9.015625 -2.265625 L 9.015625 -0.359375 L 0.484375 0 L 0.484375 -1.90625 L 4.171875 -6.03125 L 0.484375 -6.03125 Z M 0.484375 -7.9375 "/></g></g></g><g fill="#38b6ff" fill-opacity="1"><g transform="translate(40.764717, 20.666166)"><g><path d="M 8.984375 -7.9375 L 8.984375 0 L 7.078125 0 L 7.078125 -0.65625 L 0.5625 0 L 0.5625 -7.9375 Z M 4.15625 -6.03125 L 4.15625 -2.265625 L 7.078125 -2.5625 L 7.078125 -6.03125 Z M 4.15625 -6.03125 "/></g></g></g><g fill="#38b6ff" fill-opacity="1"><g transform="translate(50.291542, 20.666166)"><g><path d="M 9.75 -7.9375 L 9.75 0 L 7.390625 0 L 7.390625 -6.03125 L 4.078125 -6.03125 L 4.078125 0 L 0.484375 0 L 0.484375 -7.9375 Z M 9.75 -7.9375 "/></g></g></g><g fill="#cb6ce6" fill-opacity="1"><g transform="translate(60.509389, 20.666166)"><g><path d="M 6.9375 -5.3125 L 10.1875 -1.484375 L 8.453125 0 L 5.546875 -3.4375 L 3 0 L 0.15625 -2.09375 L 3.1875 -6.21875 L 0.78125 -9.0625 L 2.546875 -10.53125 L 4.59375 -8.109375 L 6.859375 -11.1875 L 9.71875 -9.0625 Z M 6.9375 -5.3125 "/></g></g></g></svg>